# xmcd
#
# Track frame offsets:
#	150
#	14092
#	30228
#	42131
#	56239
#	74280
#	88707
#	103085
#	121728
#	136139
#	150945
#	168286
#	181363
#	196826
#	211516
#
# Disc length: 3010 seconds
#
# Revision: 0
# Processed by: cddbd v1.5.2PL0 Copyright (c) Steve Scherf et al.
# Submitted via: dBpowerAMP V4.0
#
DISCID=ba0bc00f
DTITLE=Cadetes - Eliseo - Luis y Julian - 15 Corridos de Oro
DYEAR=2004
DGENRE=Norteñas
TTITLE0=01 Las 3 Tumbas
TTITLE1=02 Valentin de la Sierra
TTITLE2=03 Figura Doblada
TTITLE3=04 Eran 4 de a Caballo
TTITLE4=05 El Perro Negro
TTITLE5=06 La Fuga de Sinaloa
TTITLE6=07 El Hijo del Palenque
TTITLE7=08 El Hijo de la Tiznada
TTITLE8=09 La Muerte de un Federal
TTITLE9=10 El Muchacho y el Potro
TTITLE10=11 Sucedio en la Barranca
TTITLE11=12 La Muerte de un Soplon
TTITLE12=13 La Banda del Carro Rojo
TTITLE13=14 La Muerte del Pollero
TTITLE14=15 Asesino a Sueldo
EXTD=Cadetes Eliseo y Luis y Julian
EXTT0=
EXTT1=
EXTT2=
EXTT3=
EXTT4=
EXTT5=
EXTT6=
EXTT7=
EXTT8=
EXTT9=
EXTT10=
EXTT11=
EXTT12=
EXTT13=
EXTT14=
PLAYORDER=
